{"title":"The Avengers Earths Mightiest Heroes S02E04 720p WEB-DL X264","uid":7227673,"size":93088566,"categoryP":"video","categoryS":"hd___tv_shows","magnet":"?xt=urn:btih:b33a0931a03aa6dc327337d647ae73db7e99cc57&amp;dn=The+Avengers+Earths+Mightiest+Heroes+S02E04+720p+WEB-DL+X264&amp;tr=udp%3A%2F%2Ftracker.openbittorrent.com%3A80&amp;tr=udp%3A%2F%2Fopen.demonii.com%3A1337&amp;tr=udp%3A%2F%2Ftracker.coppersurfer.tk%3A6969&amp;tr=udp%3A%2F%2Fexodus.desync.com%3A6969","seeders":0,"leechers":1,"uploader":"bikers123","files":-1,"time":1335728056,"description":"The Avengers Earths Mightiest Heroes S02E04 720p WEB-DL X264\n\n\nPlot Summary:-\nAfter 74 villains break out of prison, Marvel's most powerful superheroes team up to capture all of them, and also to defend the Earth from widespread threats.\n\nIMDB:-  &lt;a href=&quot;\nhttp://www.imdb.com/title/tt1626038/&quot; rel=&quot;nofollow&quot; target=&quot;_NEW&quot;&gt;\nhttp://www.imdb.com/title/tt1626038/&lt;/a&gt;\n\nScreenshots:-  &lt;a href=&quot;\nhttp://bayimg.com/CaoAnaADF&quot; rel=&quot;nofollow&quot; target=&quot;_NEW&quot;&gt;\nhttp://bayimg.com/CaoAnaADF&lt;/a&gt; &lt;a href=&quot;\nhttp://bayimg.com/cAoaoAAdF&quot; rel=&quot;nofollow&quot; target=&quot;_NEW&quot;&gt;\nhttp://bayimg.com/cAoaoAAdF&lt;/a&gt;\n\n\nDetails:-\nVideo\nID                                       : 1\nFormat                                   : AVC\nFormat/Info                              : Advanced Video Codec\nFormat profile                           : &lt;a class=&quot;__cf_email__&quot; href=&quot;/cdn-cgi/l/email-protection&quot; data-cfemail=&quot;9ad2f3fdf2dad6aeb4aa&quot;&gt;[email&amp;#160;protected]&lt;/a&gt;&lt;script cf-hash='f9e31' type=&quot;text/javascript&quot;&gt;\n/* &lt;![CDATA[ */!function(){try{var t=&quot;currentScript&quot;in document?document.currentScript:function(){for(var t=document.getElementsByTagName(&quot;script&quot;),e=t.length;e--;)if(t[e].getAttribute(&quot;cf-hash&quot;))return t[e]}();if(t&amp;&amp;t.previousSibling){var e,r,n,i,c=t.previousSibling,a=c.getAttribute(&quot;data-cfemail&quot;);if(a){for(e=&quot;&quot;,r=parseInt(a.substr(0,2),16),n=2;a.length-n;n+=2)i=parseInt(a.substr(n,2),16)^r,e+=String.fromCharCode(i);e=document.createTextNode(e),c.parentNode.replaceChild(e,c)}}}catch(u){}}();/* ]]&gt; */&lt;/script&gt;\nFormat settings, CABAC                   : Yes\nFormat settings, ReFrames                : 8 frames\nMuxing mode                              : Header stripping\nCodec ID                                 : V_MPEG4/ISO/AVC\nDuration                                 : 22mn 36s\nBit rate                                 : 500 Kbps\nWidth                                    : 1 280 pixels\nHeight                                   : 720 pixels\nDisplay aspect ratio                     : 16:9\nFrame rate mode                          : Variable\nFrame rate                               : 23.976 fps\nColor space                              : YUV\nChroma subsampling                       : 4:2:0\nBit depth                                : 8 bits\nScan type                                : Progressive\nBits/(Pixel*Frame)                       : 0.023\nStream size                              : 79.2 MiB (89%)\nWriting library                          : x264 core 115\nLanguage                                 : English\nDefault                                  : Yes\nForced                                   : No\nColor primaries                          : BT.709-5, BT.1361, IEC 61966-2-4, SMPTE RP177\nTransfer characteristics                 : BT.709-5, BT.1361\nMatrix coefficients                      : BT.709-5, BT.1361, IEC 61966-2-4 709, SMPTE RP177\n\nAudio\nID                                       : 2\nFormat                                   : Vorbis\nFormat settings, Floor                   : 1\nCodec ID                                 : A_VORBIS\nDuration                                 : 22mn 36s\nBit rate mode                            : Variable\nBit rate                                 : 48.0 Kbps\nChannel(s)                               : 2 channels\nSampling rate                            : 48.0 KHz\nCompression mode                         : Lossy\nStream size                              : 7.76 MiB (9%)\nWriting library                          : aoTuV Beta 5 (UTC 2006-10-24)\nLanguage                                 : English\nDefault                                  : No\nForced                                   : No\nWriting application                      : HandBrake\n\n\n\n\nHope this torrent helps you out!!Enjoy!!","torrent":{"xt":"urn:btih:b33a0931a03aa6dc327337d647ae73db7e99cc57","amp;dn":"The+Avengers+Earths+Mightiest+Heroes+S02E04+720p+WEB-DL+X264","amp;tr":["udp%3A%2F%2Ftracker.openbittorrent.com%3A80","udp%3A%2F%2Fopen.demonii.com%3A1337","udp%3A%2F%2Ftracker.coppersurfer.tk%3A6969","udp%3A%2F%2Fexodus.desync.com%3A6969"],"infoHash":"b33a0931a03aa6dc327337d647ae73db7e99cc57","infoHashBuffer":{"type":"Buffer","data":[179,58,9,49,160,58,166,220,50,115,55,214,71,174,115,219,126,153,204,87]},"announce":[],"urlList":[]}}